#!OML:ASF H:\MichaelJackson\Top Level 1\Subject 1\Session 1\male.ASF
:FULLY-SPECIFIED
:DEGREES
108
root 5.74436 13.4842 -14.5002 24.7077 8.88312 4.18423
lowerback 16.4094 -0.0239056 -0.719236
upperback 2.51542 -0.254533 -1.55855
thorax -6.5153 -0.116842 -1.19588
lowerneck -8.19207 -2.98351 0.10943
upperneck -22.3379 -3.32401 4.29806
head -5.35732 -1.86749 1.40952
rclavicle -1.42131e-014 9.74045e-015
rhumerus -16.4955 24.3403 -67.4137
rradius 80.7699
rwrist -8.08185
rhand -38.5267 -32.753
rfingers 7.12502
rthumb -11.5472 -62.4149
lclavicle -1.42131e-014 9.74045e-015
lhumerus 1.61498 -41.2558 68.8829
lradius 69.3099
lwrist 37.3577
lhand -22.2201 -0.0105607
lfingers 7.12502
lthumb 4.19625 29.9279
rfemur -71.8302 -0.951595 21.0936
rtibia 97.455
rfoot -31.1447 -15.0358
rtoes -9.33819
lfemur -67.4866 -7.14469 -24.5523
ltibia 91.2908
lfoot -41.3087 9.75164
ltoes 1.04979
109
root 5.73042 13.4982 -14.4272 24.2192 8.89013 4.13156
lowerback 16.0594 -0.0569406 -0.836455
upperback 2.40206 -0.317606 -1.59779
thorax -6.44566 -0.145669 -1.15683
lowerneck -8.37304 -2.98857 0.0246213
upperneck -21.4937 -3.32679 4.47522
head -5.05501 -1.86189 1.46217
rclavicle 7.55382e-015 -1.55052e-014
rhumerus -14.8783 23.3522 -63.4583
rradius 83.2569
rwrist -8.36069
rhand -38.5 -33.436
rfingers 7.12502
rthumb -11.5215 -63.0994
lclavicle 7.55382e-015 -1.55052e-014
lhumerus 4.37079 -40.135 65.1781
lradius 71.9658
lwrist 37.4627
lhand -22.6514 -0.299942
lfingers 7.12502
lthumb 3.77974 29.6463
rfemur -70.713 -0.686118 21.2797
rtibia 97.2151
rfoot -31.4902 -15.7434
rtoes -9.58154
lfemur -66.5183 -6.96368 -24.5951
ltibia 91.2351
lfoot -41.503 10.2197
ltoes 0.133684
110
root 5.71497 13.5315 -14.3507 23.7191 8.88395 4.06713
lowerback 15.7005 -0.102301 -0.956128
upperback 2.27339 -0.396457 -1.63349
thorax -6.38696 -0.182142 -1.10987
lowerneck -8.60221 -2.99228 -0.0747271
upperneck -20.5263 -3.33747 4.6324
head -4.70886 -1.85542 1.50816
rclavicle 9.64106e-015 -1.56046e-014
rhumerus -13.0465 22.2165 -59.2692
rradius 85.6122
rwrist -9.18284
rhand -38.6422 -34.4075
rfingers 7.12502
rthumb -11.6587 -64.0631
lclavicle 9.64106e-015 -1.56046e-014
lhumerus 7.18167 -38.7611 61.2623
lradius 74.6103
lwrist 37.7513
lhand -23.1618 -0.585014
lfingers 7.12502
lthumb 3.28689 29.3694
rfemur -69.4504 -0.409222 21.45
rtibia 96.7534
rfoot -31.7724 -16.3456
rtoes -9.87141
lfemur -65.4426 -6.73788 -24.608
ltibia 90.987
lfoot -41.5815 10.5523
ltoes -0.706448
111
root 5.69821 13.5847 -14.2698 23.2033 8.86778 3.99303
lowerback 15.3289 -0.161288 -1.07378
upperback 2.13792 -0.491769 -1.66542
thorax -6.32793 -0.22667 -1.05734
lowerneck -9.16947 -2.99347 -0.139648
upperneck -18.8688 -3.40143 4.61959
head -4.6142 -1.8442 1.63813
rclavicle -1.87355e-014 -6.60959e-015
rhumerus -11.0123 20.9158 -54.8985
rradius 87.7782
rwrist -10.3649
rhand -38.9108 -35.4561
rfingers 7.12502
rthumb -11.9177 -65.0969
lclavicle -1.87355e-014 -6.60959e-015
lhumerus 9.98405 -37.0997 57.2009
lradius 77.2309
lwrist 38.2687
lhand -23.6535 -0.943493
lfingers 7.12502
lthumb 2.81195 29.0177
rfemur -68.0547 -0.140314 21.608
rtibia 96.0772
rfoot -31.9371 -16.8314
rtoes -10.2745
lfemur -64.2531 -6.47076 -24.593
ltibia 90.5412
lfoot -41.5213 10.7465
ltoes -1.48954
112
root 5.68062 13.6589 -14.1836 22.6783 8.84474 3.90805
lowerback 14.9351 -0.237266 -1.16845
upperback 1.99804 -0.604926 -1.70195
thorax -6.26088 -0.280547 -1.01995
lowerneck -9.37862 -2.99433 -0.249365
upperneck -17.8416 -3.41962 4.73168
head -4.1839 -1.83882 1.66057
rclavicle -1.07293e-014 1.70264e-014
rhumerus -8.81786 19.4317 -50.4378
rradius 89.7036
rwrist -11.6338
rhand -39.2336 -36.3665
rfingers 7.12502
rthumb -12.2289 -65.989
lclavicle -1.07293e-014 1.70264e-014
lhumerus 12.7101 -35.1345 53.0561
lradius 79.8096
lwrist 38.9602
lhand -24.085 -1.40247
lfingers 7.12502
lthumb 2.39528 28.5638
rfemur -66.549 0.0988011 21.7668
rtibia 95.1906
rfoot -31.941 -17.1708
rtoes -10.7338
lfemur -62.9541 -6.16971 -24.5483
ltibia 89.885
lfoot -41.3091 10.8131
ltoes -2.23772
113
root 5.66248 13.7546 -14.0906 22.1495 8.81428 3.81626
lowerback 14.506 -0.327037 -1.23433
upperback 1.85687 -0.731037 -1.74911
thorax -6.17548 -0.341682 -1.00867
lowerneck -9.57266 -2.99429 -0.351819
upperneck -16.7833 -3.44148 4.82727
head -3.75522 -1.83432 1.6761
rclavicle -1.16538e-014 -2.22639e-014
rhumerus -6.55137 17.7573 -45.9764
rradius 91.3687
rwrist -12.7073
rhand -39.5211 -36.9569
rfingers 7.12502
rthumb -12.5061 -66.5627
lclavicle -1.16538e-014 -2.22639e-014
lhumerus 15.2906 -32.8697 48.9117
lradius 82.3192
lwrist 39.7004
lhand -24.3742 -1.95918
lfingers 7.12502
lthumb 2.11599 28.0101
rfemur -64.9438 0.288345 21.9379
rtibia 94.0938
rfoot -31.7538 -17.3648
rtoes -11.2068
lfemur -61.5313 -5.84277 -24.4763
ltibia 88.9975
lfoot -40.9503 10.7609
ltoes -2.9399
114
root 5.64412 13.8721 -13.9898 21.6244 8.77063 3.71533
lowerback 14.0302 -0.42456 -1.26215
upperback 1.70982 -0.861325 -1.81416
thorax -6.07061 -0.406182 -1.03841
lowerneck -9.72472 -2.99034 -0.439855
upperneck -15.7214 -3.46044 4.92
head -3.34283 -1.82881 1.68972
rclavicle -2.23633e-014 2.64384e-014
rhumerus -4.32888 15.9079 -41.6343
rradius 92.7817
rwrist -13.3825
rhand -39.6794 -37.1189
rfingers 7.12502
rthumb -12.6587 -66.7153
lclavicle -2.23633e-014 2.64384e-014
lhumerus 17.688 -30.3398 44.8525
lradius 84.702
lwrist 40.3159
lhand -24.5688 -2.55384
lfingers 7.12502
lthumb 1.92802 27.4172
rfemur -63.2468 0.419027 22.1331
rtibia 92.7793
rfoot -31.3654 -17.4175
rtoes -11.6374
lfemur -59.9741 -5.49515 -24.3764
ltibia 87.8573
lfoot -40.453 10.6214
ltoes -3.61671
